<svg preserveAspectRatio="none" width="100%" height="100%" overflow="visible" style="display: block;" viewBox="0 0 10 10" fill="none" xmlns="http://www.w3.org/2000/svg">
<g id="Vector">
<path d="M8 5H6V5.75H8V5Z" fill="#27292E"/>
<path d="M8 6.5H6V7.25H8V6.5Z" fill="#27292E"/>
<path d="M9 2.5H6.5V1C6.5 0.45 6.05 0 5.5 0H4.5C3.95 0 3.5 0.45 3.5 1V2.5H1C0.45 2.5 0 2.95 0 3.5V9C0 9.55 0.45 10 1 10H9C9.55 10 10 9.55 10 9V3.5C10 2.95 9.55 2.5 9 2.5ZM4.5 1H5.5V3.5H4.5V1ZM9 9H1V3.5H3.5C3.5 4.05 3.95 4.5 4.5 4.5H5.5C6.05 4.5 6.5 4.05 6.5 3.5H9V9Z" fill="#27292E"/>
<path d="M3.5 6.5C3.91421 6.5 4.25 6.16421 4.25 5.75C4.25 5.33579 3.91421 5 3.5 5C3.08579 5 2.75 5.33579 2.75 5.75C2.75 6.16421 3.08579 6.5 3.5 6.5Z" fill="#27292E"/>
<path d="M4.54 7.09C4.22 6.95 3.87 6.875 3.5 6.875C3.13 6.875 2.78 6.95 2.46 7.09C2.18 7.21 2 7.48 2 7.785V8H5V7.785C5 7.48 4.82 7.21 4.54 7.09Z" fill="#27292E"/>
</g>
</svg>
